<svg width="22" height="22" viewBox="0 0 22 22" fill="none" xmlns="http://www.w3.org/2000/svg">
<circle cx="11" cy="11" r="11" fill="white"/>
<g clip-path="url(#clip0_27_38)">
<path d="M11.1875 11.7548L17.3009 6.99934C17.1785 6.73347 16.9134 6.54688 16.6015 6.54688H5.77342C5.46153 6.54688 5.19643 6.73347 5.07404 6.99934L11.1875 11.7548Z" fill="#121423"/>
<path d="M11.6626 13.3446C11.5228 13.4535 11.3551 13.5078 11.1875 13.5078C11.0199 13.5078 10.8522 13.4535 10.7124 13.3446L5 8.90199V15.0547C5 15.4822 5.34592 15.8281 5.77344 15.8281H16.6016C17.0291 15.8281 17.375 15.4822 17.375 15.0547V8.90199L11.6626 13.3446Z" fill="#121423"/>
</g>
<defs>
<clipPath id="clip0_27_38">
<rect width="12.375" height="12.375" fill="white" transform="translate(5 5)"/>
</clipPath>
</defs>
</svg>
