<svg width="22" height="22" viewBox="0 0 22 22" fill="none" xmlns="http://www.w3.org/2000/svg">
<g clip-path="url(#clip0_27_62)">
<rect width="22" height="22" fill="#121423"/>
<path d="M11 0C4.92422 0 0 4.92422 0 11C0 17.0758 4.92422 22 11 22C17.0758 22 22 17.0758 22 11C22 4.92422 17.0758 0 11 0ZM7.92344 15.602H5.7793V8.73984H7.92344V15.602ZM6.79336 7.88047H6.77617C5.99844 7.88047 5.4957 7.35625 5.4957 6.69024C5.4957 6.01133 6.01562 5.5 6.80625 5.5C7.59687 5.5 8.08242 6.01133 8.09961 6.69024C8.10391 7.35195 7.60117 7.88047 6.79336 7.88047ZM16.5 15.602H14.068V12.0527C14.068 11.1246 13.6898 10.4887 12.852 10.4887C12.2117 10.4887 11.8551 10.9184 11.6918 11.3309C11.6316 11.477 11.6402 11.6832 11.6402 11.8937V15.602H9.22969C9.22969 15.602 9.25977 9.31133 9.22969 8.73984H11.6402V9.81836C11.782 9.3457 12.5512 8.67539 13.7801 8.67539C15.3055 8.67539 16.5 9.66367 16.5 11.7863V15.602Z" fill="white"/>
</g>
<defs>
<clipPath id="clip0_27_62">
<rect width="22" height="22" fill="white"/>
</clipPath>
</defs>
</svg>
