<svg width="34" height="34" viewBox="0 0 34 34" fill="none" xmlns="http://www.w3.org/2000/svg">
<path d="M7.08334 13.6667C7.08334 9.89542 7.08334 8.0098 8.25491 6.83823C9.42648 5.66666 11.3121 5.66666 15.0833 5.66666H18.9167C22.6879 5.66666 24.5735 5.66666 25.7451 6.83823C26.9167 8.0098 26.9167 9.89542 26.9167 13.6667V19.8333C26.9167 23.4929 26.9167 25.3227 26.1452 26.6931C25.6068 27.6496 24.8163 28.4401 23.8598 28.9786C22.4893 29.75 20.6596 29.75 17 29.75V29.75C13.3404 29.75 11.5107 29.75 10.1402 28.9786C9.18368 28.4401 8.39319 27.6496 7.85477 26.6931C7.08334 25.3227 7.08334 23.4929 7.08334 19.8333V13.6667Z" stroke="#175CCD" stroke-width="2" stroke-linejoin="round"/>
<path d="M17 5.66666V12.75" stroke="#175CCD" stroke-width="2" stroke-linecap="round" stroke-linejoin="round"/>
</svg>
